<svg width="12" height="19" viewBox="0 0 12 19" fill="none" xmlns="http://www.w3.org/2000/svg">
<path fill-rule="evenodd" clip-rule="evenodd" d="M0.979553 0.452086C1.05252 0.387621 1.1392 0.336476 1.23464 0.301578C1.33007 0.266681 1.43237 0.248718 1.5357 0.248718C1.63902 0.248718 1.74133 0.266681 1.83676 0.301578C1.93219 0.336476 2.01887 0.387621 2.09184 0.452086L11.518 8.7588C11.5912 8.8231 11.6492 8.89949 11.6888 8.98359C11.7284 9.06769 11.7488 9.15785 11.7488 9.2489C11.7488 9.33995 11.7284 9.43011 11.6888 9.51421C11.6492 9.59831 11.5912 9.67469 11.518 9.739L2.09184 18.0457C1.94434 18.1757 1.74429 18.2487 1.5357 18.2487C1.3271 18.2487 1.12705 18.1757 0.979553 18.0457C0.832055 17.9157 0.749191 17.7394 0.749191 17.5556C0.749191 17.3718 0.832055 17.1955 0.979553 17.0655L9.85115 9.2489L0.979553 1.43228C0.906401 1.36798 0.848362 1.29159 0.808762 1.20749C0.769162 1.12339 0.748779 1.03323 0.748779 0.942182C0.748779 0.85113 0.769162 0.760973 0.808762 0.676875C0.848362 0.592776 0.906401 0.516388 0.979553 0.452086V0.452086Z" fill="black"/>
</svg>
